<?xml version="1.0" encoding="UTF-8" standalone="no"?>
<!-- Generator: Adobe Illustrator 16.0.4, SVG Export Plug-In . SVG Version: 6.00 Build 0)  -->

<svg
   xmlns:dc="http://purl.org/dc/elements/1.1/"
   xmlns:cc="http://creativecommons.org/ns#"
   xmlns:rdf="http://www.w3.org/1999/02/22-rdf-syntax-ns#"
   xmlns:svg="http://www.w3.org/2000/svg"
   xmlns="http://www.w3.org/2000/svg"
   xmlns:sodipodi="http://sodipodi.sourceforge.net/DTD/sodipodi-0.dtd"
   xmlns:inkscape="http://www.inkscape.org/namespaces/inkscape"
   version="1.1"
   id="Layer_1"
   x="0px"
   y="0px"
   width="448.94623"
   height="448.94623"
   viewBox="0 0 448.94623 448.94622"
   enable-background="new 0 0 306 344.35"
   xml:space="preserve"
   sodipodi:docname="avatar7.svg"
   inkscape:version="0.92.3 (2405546, 2018-03-11)"><metadata
   id="metadata25"><rdf:RDF><cc:Work
       rdf:about=""><dc:format>image/svg+xml</dc:format><dc:type
         rdf:resource="http://purl.org/dc/dcmitype/StillImage" /><dc:title></dc:title></cc:Work></rdf:RDF></metadata><defs
   id="defs23"><clipPath
     clipPathUnits="userSpaceOnUse"
     id="clipPath5390"><path
       style="opacity:0.43646408;fill:#004482"
       d="m 238.68164,110.20117 c -4.80325,0 -9.6065,1.05225 -13.25,3.15625 L 98.931641,186.39258 c -7.288,4.207 -13.25,14.53422 -13.25,22.94922 v 146.06836 c 0,4.208 1.490578,8.89568 3.892578,13.05468 2.401,4.159 5.714422,7.79349 9.357422,9.89649 l 126.499999,73.0332 c 7.287,4.208 19.213,4.208 26.5,0 l 126.5,-73.0332 c 3.644,-2.104 6.95642,-5.73649 9.35742,-9.89649 2.401,-4.159 3.89258,-8.84668 3.89258,-13.05468 V 209.3418 c 0,-4.208 -1.49058,-8.89374 -3.89258,-13.05274 -2.402,-4.16 -5.71442,-7.79248 -9.35742,-9.89648 l -126.5,-73.03516 c -3.6435,-2.104 -8.44675,-3.15625 -13.25,-3.15625 z"
       id="path5392"
       inkscape:connector-curvature="0" /></clipPath></defs><sodipodi:namedview
   pagecolor="#ffffff"
   bordercolor="#666666"
   borderopacity="1"
   objecttolerance="10"
   gridtolerance="10"
   guidetolerance="10"
   inkscape:pageopacity="0"
   inkscape:pageshadow="2"
   inkscape:window-width="1280"
   inkscape:window-height="971"
   id="namedview21"
   showgrid="false"
   inkscape:object-paths="true"
   inkscape:snap-nodes="false"
   inkscape:zoom="1.4142136"
   inkscape:cx="247.71115"
   inkscape:cy="271.54646"
   inkscape:window-x="-8"
   inkscape:window-y="-8"
   inkscape:window-maximized="1"
   inkscape:current-layer="Layer_1" />
<rect
   style="display:none;fill:#ff8edf;fill-opacity:1;stroke:none;stroke-width:6.02048397;stroke-miterlimit:4;stroke-dasharray:none;stroke-opacity:1"
   id="rect5273"
   width="448.94623"
   height="448.94623"
   x="0"
   y="0"
   inkscape:label="back" /><path
   d="m 429.78869,362.2802 c 2.401,-4.159 3.893,-8.845 3.893,-13.053 v -146.069 c 0,-4.208 -1.49,-8.89299 -3.892,-13.05199 l -151.108,86.08699 z"
   id="path2"
   inkscape:connector-curvature="0"
   style="fill:#00599c"
   sodipodi:nodetypes="cssccc"
   inkscape:label="right" />
<path
   d="m 293.93169,445.2112 126.5,-73.034 c 3.644,-2.104 6.956,-5.737 9.357,-9.897 l -149.107,-86.087 -149.107,86.087 c 2.401,4.159 5.714,7.794 9.357,9.897 l 126.5,73.034 c 7.287,4.208 19.213,4.208 26.5,0 z"
   id="path4"
   inkscape:connector-curvature="0"
   style="fill:#004482"
   sodipodi:nodetypes="cccccccc"
   inkscape:label="bottom" />
<path
   d="m 429.78969,190.10621 c -2.402,-4.16 -5.715,-7.79401 -9.358,-9.89801 l -126.5,-73.034 c -7.287,-4.208 -19.213,-4.208 -26.5,0 l -126.5,73.034 c -7.288,4.207 -13.25,14.535 -13.25,22.95 v 146.069 c 0,4.208 1.491,8.894 3.893,13.053 l 149.107,-86.087 v 0 z"
   id="path6"
   inkscape:connector-curvature="0"
   style="fill:#659ad2"
   sodipodi:nodetypes="cccccsscccc"
   inkscape:label="top" />
<g
   id="g10"
   transform="translate(127.68169,104.0182)"
   inkscape:label="c"
   style="display:none">
	<path
   d="m 153,274.175 c -56.243,0 -102,-45.757 -102,-102 0,-56.243 45.757,-102 102,-102 36.292,0 70.139,19.53 88.331,50.968 l -44.143,25.544 C 188.083,130.951 171.15,121.175 153,121.175 c -28.122,0 -51,22.878 -51,51 0,28.121 22.878,51 51,51 18.152,0 35.085,-9.776 44.191,-25.515 l 44.143,25.543 c -18.192,31.441 -52.04,50.972 -88.334,50.972 z"
   id="path8"
   inkscape:connector-curvature="0"
   style="fill:#ffffff" />
</g>
<g
   id="g14"
   transform="translate(127.68169,104.0182)"
   inkscape:label="l+">
	<polygon
   points="232.334,189.175 243.666,189.175 243.666,177.841 255,177.841 255,166.508 243.666,166.508 243.666,155.175 232.334,155.175 232.334,166.508 221,166.508 221,177.841 232.334,177.841 "
   id="polygon12"
   style="fill:#ffffff" />
</g>
<g
   id="g18"
   transform="translate(127.68169,104.0182)"
   inkscape:label="r+">
	<polygon
   points="274.834,189.175 286.166,189.175 286.166,177.841 297.5,177.841 297.5,166.508 286.166,166.508 286.166,155.175 274.834,155.175 274.834,166.508 263.5,166.508 263.5,177.841 274.834,177.841 "
   id="polygon16"
   style="fill:#ffffff" />
</g>
<path
   class="st0"
   d="m -385.43827,708.7849 c -19.41351,10.81134 -68.65987,39.01941 -68.65987,39.01941 0,0 1.64618,2.60487 5.40559,9.7067 32.35056,9.08133 117.1527,23.28873 116.48103,-64.86847 1.65882,-1.41283 2.65473,-17.71729 14.2537,-23.58981 83.80977,-46.77161 410.054949,-229.63193 508.78119,-285.10181 16.80865,-9.16521 29.07034,-0.14618 30.72907,-1.55912 74.77476,46.79122 107.16624,-33.46402 116.48104,-64.86842 -3.75938,-7.10189 -5.40563,-9.70676 -5.40563,-9.70676 0,0 -51.13869,28.67485 -68.66001,39.0193 -21.02239,-3.84667 -47.57171,-54.50599 -42.54547,-74.81571 14.9164,-8.69826 68.65992,-39.01944 68.65992,-39.01944 0,0 -1.64609,-2.60491 -5.40561,-9.70674 -32.35047,-9.08142 -117.15265,-23.28873 -116.48093,64.86845 -1.65868,1.41296 -3.60083,17.95064 -16.85857,25.23616 -92.570418,51.94384 -421.42038,236.45058 -508.78119,285.10182 -11.36543,6.81879 -25.51942,-1.73357 -27.17816,-0.32067 -74.77472,-46.79115 -107.16619,33.46401 -116.48096,64.86844 3.75938,7.1019 5.40565,9.70679 5.40565,9.70679 0,0 47.58768,-26.79523 68.65994,-39.01945 20.30969,5.02618 49.69719,54.98525 41.59929,75.04915 z"
   id="path20"
   inkscape:connector-curvature="0"
   style="fill:#f2f2ed;fill-opacity:1;stroke:none;stroke-width:9.7449007;stroke-linejoin:bevel;stroke-miterlimit:10;stroke-dasharray:none"
   inkscape:transform-center-x="413.39388"
   inkscape:transform-center-y="184.71458"
   inkscape:label="wrench"
   clip-path="url(#clipPath5390)"
   transform="translate(42,-6.1837654)" /><g
   transform="matrix(4.1006109,-0.91342521,0.78036324,3.4873575,-1354.0962,-1456.8516)"
   id="g96"
   style="display:inline;stroke:#659ad2;stroke-width:2.58086228;stroke-miterlimit:4;stroke-dasharray:none;stroke-opacity:1"
   inkscape:transform-center-x="-80.321525"
   inkscape:transform-center-y="-105.77303"><path
     id="path48"
     d="m 317.3,535.9 c 0,0 0.2,9 0.2,13.3 -8,-11.6 -53.2,-11.2 -59.7,0.9 -0.3,-0.5 -0.1,-5.4 -0.1,-9.8 -5.6,12 -25.6,-2 -25.2,-8.4 1.5,-27.7 63.7,-46.4 73.9,-28.7 4.7,-4 17.6,0.4 22.7,8.9 4.3,7.1 1.4,20.3 -11.8,23.8 z"
     class="st5"
     inkscape:connector-curvature="0"
     style="fill:#ffffff;stroke:#659ad2;stroke-width:2.58086228;stroke-linejoin:bevel;stroke-miterlimit:4;stroke-dasharray:none;stroke-opacity:1" /><path
     style="fill:none;stroke:#659ad2;stroke-width:2.58086228;stroke-linecap:square;stroke-linejoin:round;stroke-miterlimit:4;stroke-dasharray:none;stroke-opacity:1"
     inkscape:connector-curvature="0"
     id="path50"
     d="m 255.4125,524.92187 c 0,6.4 7,12 13.6,10"
     class="st6" /><path
     style="fill:none;stroke:#659ad2;stroke-width:2.58086228;stroke-linecap:square;stroke-linejoin:round;stroke-miterlimit:4;stroke-dasharray:none;stroke-opacity:1"
     inkscape:connector-curvature="0"
     id="path52"
     d="m 320.0125,524.52187 c -0.3,5.5 -5.1,9.9 -11.6,9.7"
     class="st6" /><path
     style="fill:none;stroke:#659ad2;stroke-width:2.58086228;stroke-linecap:square;stroke-linejoin:round;stroke-miterlimit:4;stroke-dasharray:none;stroke-opacity:1"
     inkscape:connector-curvature="0"
     id="path54"
     d="m 316.19687,537.94531 c -10.9,-7.5 -45,-8.1 -58,2.1"
     class="st6" /><path
     style="fill:#ffffff;stroke:#659ad2;stroke-width:2.58086228;stroke-linejoin:bevel;stroke-miterlimit:4;stroke-dasharray:none;stroke-opacity:1"
     inkscape:connector-curvature="0"
     id="path56"
     d="m 291.0125,530.52187 c 1.9,3.4 7.8,5.9 13.4,4.6 15.8,-3.6 8.1,-22 5.5,-25.4"
     class="st5" /></g></svg>