<?xml version="1.0" encoding="UTF-8"?>
<svg _SVGFile__filename="oldscale/actions/syntax.svg" sodipodi:docbase="/home/danny/work/icons/primary/scalable/actions" sodipodi:docname="spellcheck_actual.svg" sodipodi:version="0.32" version="1.0" viewBox="0 0 60 60" xmlns="http://www.w3.org/2000/svg" xmlns:sodipodi="http://inkscape.sourceforge.net/DTD/sodipodi-0.dtd">
 <sodipodi:namedview bordercolor="#666666" borderopacity="1.0" pagecolor="#ffffff"/>
 <g transform="matrix(.74386 0 0 .74402 1.4341 1.4308)" stroke-linejoin="round">
  <path transform="matrix(.99769 0 0 1.0047 .018582 -.45062)" d="m6.6786 5.1165c-1.108 0-2 0.892-2 2v46.384c0 1.109 0.892 2.001 2 2.001h46.744c1.108 0 2-0.892 2-2v-46.384c0-1.1085-0.892-2.0005-2-2.0005h-46.744z" fill="none" stroke="#fff" stroke-width="11.533"/>
  <path transform="matrix(.99769 0 0 1.0047 .018582 -.45062)" d="m6.6786 5.1165c-1.108 0-2 0.892-2 2v46.384c0 1.109 0.892 2.001 2 2.001h46.744c1.108 0 2-0.892 2-2v-46.384c0-1.1085-0.892-2.0005-2-2.0005h-46.744z" fill="#fff" fill-rule="evenodd" stroke="#000" stroke-width="4.4359"/>
 </g>
 <g transform="matrix(.76845 0 0 .76845 11.262 11.047)" stroke-linecap="round" stroke-linejoin="round">
  <path d="m19.448 40.335c4.873 4.435 8.022 8.426 13.234 17.676 11.332-28.602 26.847-35.946 24.879-37.212-3.981-2.671-23.347 19.718-25.688 22.672-2.817-1.491-12.425-6.704-12.425-3.136z" fill="none" stroke="#fff" stroke-width="9.7599"/>
  <path d="m19.448 40.335c4.873 4.435 8.022 8.426 13.234 17.676 11.332-28.602 26.847-35.946 24.879-37.212-3.981-2.671-23.347 19.718-25.688 22.672-2.817-1.491-12.425-6.704-12.425-3.136z" fill="#62b01e" fill-rule="evenodd" stroke="#62b01e" stroke-width="3.2533"/>
 </g>
 <path transform="matrix(1.501 0 0 1.501 51.777 -19.743)" d="m-21.939 28.005v4.629c0 0.281-0.088 0.516-0.264 0.703-0.176 0.188-0.4 0.281-0.674 0.281-0.215 0-0.396-0.058-0.545-0.176-0.144-0.117-0.254-0.257-0.328-0.421-0.211 0.257-0.445 0.441-0.703 0.55-0.254 0.114-0.557 0.17-0.908 0.17-0.535 0-1.024-0.15-1.465-0.451-0.437-0.305-0.785-0.719-1.043-1.242-0.254-0.527-0.381-1.104-0.381-1.729 0-0.617 0.127-1.187 0.381-1.71 0.258-0.528 0.607-0.942 1.049-1.243 0.441-0.304 0.928-0.457 1.459-0.457 0.355 0 0.658 0.055 0.908 0.164 0.254 0.11 0.488 0.295 0.703 0.557 0.071-0.16 0.18-0.299 0.328-0.416 0.149-0.121 0.33-0.182 0.545-0.182 0.274 0 0.498 0.094 0.674 0.282 0.176 0.183 0.264 0.414 0.264 0.691m-3.158 0.721c-0.399 0-0.713 0.152-0.944 0.457-0.226 0.304-0.34 0.683-0.34 1.136 0 0.29 0.051 0.559 0.153 0.809 0.101 0.246 0.248 0.441 0.439 0.586 0.195 0.145 0.426 0.217 0.692 0.217 0.402 0 0.716-0.153 0.943-0.457 0.226-0.309 0.34-0.694 0.34-1.155 0-0.457-0.114-0.835-0.34-1.136-0.227-0.305-0.541-0.457-0.943-0.457m3.955 3.908v-7.436c0-0.281 0.088-0.515 0.263-0.703 0.176-0.187 0.399-0.281 0.668-0.281 0.274 0 0.498 0.094 0.674 0.281 0.176 0.188 0.264 0.422 0.264 0.703v2.244c0.211-0.175 0.429-0.308 0.656-0.398 0.23-0.09 0.527-0.135 0.891-0.135 0.531 0 1.017 0.153 1.459 0.457 0.445 0.301 0.795 0.715 1.048 1.243 0.258 0.523 0.387 1.093 0.387 1.71 0 0.481-0.072 0.924-0.217 1.331-0.14 0.406-0.345 0.769-0.615 1.089-0.269 0.321-0.578 0.569-0.926 0.745-0.347 0.171-0.726 0.257-1.136 0.257-0.352 0-0.655-0.056-0.909-0.17-0.253-0.109-0.486-0.293-0.697-0.55-0.078 0.168-0.191 0.31-0.34 0.427-0.144 0.114-0.324 0.17-0.539 0.17-0.273 0-0.498-0.093-0.674-0.281-0.171-0.191-0.257-0.426-0.257-0.703m3.152-3.908c-0.398 0-0.713 0.152-0.943 0.457-0.227 0.304-0.34 0.683-0.34 1.136 0 0.29 0.051 0.559 0.152 0.809 0.102 0.246 0.248 0.441 0.44 0.586 0.195 0.145 0.425 0.217 0.691 0.217 0.402 0 0.717-0.153 0.943-0.457 0.227-0.309 0.34-0.694 0.34-1.155 0-0.457-0.113-0.835-0.34-1.136-0.226-0.305-0.541-0.457-0.943-0.457m3.521 1.593c0-0.621 0.133-1.193 0.399-1.716 0.266-0.528 0.637-0.942 1.113-1.243 0.481-0.3 1.028-0.451 1.641-0.451 0.324 0 0.658 0.039 1.002 0.117 0.3435 0.075 0.6325 0.204 0.8669 0.387 0.2344 0.184 0.3516 0.432 0.3516 0.744 0 0.25-0.0742 0.459-0.2227 0.627-0.1445 0.168-0.3261 0.252-0.5449 0.252-0.1055 0-0.2089-0.017-0.3109-0.052-0.097-0.036-0.197-0.073-0.298-0.112-0.098-0.043-0.204-0.078-0.317-0.105-0.109-0.028-0.248-0.041-0.416-0.041-0.305 0-0.562 0.072-0.773 0.216-0.207 0.141-0.364 0.333-0.469 0.575-0.102 0.238-0.152 0.506-0.152 0.802 0 0.29 0.05 0.559 0.152 0.809 0.101 0.246 0.248 0.441 0.439 0.586 0.196 0.145 0.426 0.217 0.692 0.217 0.301 0 0.603-0.057 0.908-0.17s0.4863-0.17 0.5449-0.17c0.1406 0 0.2695 0.041 0.3867 0.123s0.209 0.189 0.2754 0.322c0.0703 0.129 0.1055 0.262 0.1055 0.399 0 0.289-0.127 0.533-0.3809 0.732-0.25 0.199-0.5486 0.344-0.8966 0.434-0.348 0.093-0.662 0.14-0.943 0.14-0.465 0-0.891-0.086-1.278-0.257-0.382-0.172-0.716-0.417-1.002-0.733-0.285-0.32-0.501-0.687-0.65-1.101-0.148-0.418-0.223-0.862-0.223-1.331"/>
</svg>
